<?xml version="1.0" encoding="UTF-8" standalone="no"?>
<!-- Created with Inkscape (http://www.inkscape.org/) -->

<svg
   width="533mm"
   height="650.23999mm"
   viewBox="0 0 533 650.23999"
   version="1.1"
   id="svg5"
   inkscape:version="1.1 (1:1.1+202106031931+af4d65493e)"
   sodipodi:docname="70427d7b-9a31-41f5-86f0-ec99ccd0a610.svg"
   xmlns:inkscape="http://www.inkscape.org/namespaces/inkscape"
   xmlns:sodipodi="http://sodipodi.sourceforge.net/DTD/sodipodi-0.dtd"
   xmlns:xlink="http://www.w3.org/1999/xlink"
   xmlns="http://www.w3.org/2000/svg"
   xmlns:svg="http://www.w3.org/2000/svg">
  <sodipodi:namedview
     id="namedview7"
     pagecolor="#505050"
     bordercolor="#ffffff"
     borderopacity="1"
     inkscape:pageshadow="0"
     inkscape:pageopacity="0"
     inkscape:pagecheckerboard="1"
     inkscape:document-units="mm"
     showgrid="false"
     inkscape:zoom="0.77593294"
     inkscape:cx="1103.1881"
     inkscape:cy="536.77319"
     inkscape:window-width="1920"
     inkscape:window-height="1030"
     inkscape:window-x="0"
     inkscape:window-y="24"
     inkscape:window-maximized="1"
     inkscape:current-layer="layer4"
     fit-margin-top="0"
     fit-margin-left="0"
     fit-margin-right="0"
     fit-margin-bottom="0"
     inkscape:snap-global="false"
     inkscape:snap-object-midpoints="true" />
  <defs
     id="defs2" />
  <g
     inkscape:label="scan"
     inkscape:groupmode="layer"
     id="layer1"
     style="display:inline"
     sodipodi:insensitive="true">
    <image
       width="533"
       height="650.23999"
       preserveAspectRatio="none"
       xlink:href="images/70427d7b-9a31-41f5-86f0-ec99ccd0a610.jpg"
       id="image989"
       x="0"
       y="0"
       style="stroke-width:1.58651;image-rendering:pixelated" />
  </g>
  <g
     inkscape:groupmode="layer"
     id="layer2"
     inkscape:label="staves"
     style="display:inline"
     sodipodi:insensitive="true">
    <path
       style="font-variation-settings:normal;opacity:1;vector-effect:none;fill:none;fill-opacity:1;stroke:#ff00c1;stroke-width:0.7;stroke-linecap:round;stroke-linejoin:miter;stroke-miterlimit:4;stroke-dasharray:none;stroke-dashoffset:0;stroke-opacity:0.421691;-inkscape-stroke:none;stop-color:#000000;stop-opacity:1"
       d="m 80.951294,199.94495 c 0,0 36.795996,0.86775 55.195806,1.21262 18.50669,0.34688 37.01679,0.49678 55.52313,0.86158 33.79772,0.66623 67.58712,1.71085 101.38389,2.42388 32.61974,0.6882 65.24179,1.26905 97.86463,1.7897 8.60287,0.1373 17.20647,0.22475 25.80949,0.35184 11.99404,0.17718 23.98714,0.41696 35.98148,0.57256 10.3695,0.13452 31.10954,0.31214 31.10954,0.31214"
       id="path8604"
       sodipodi:nodetypes="caaaaaac" />
    <path
       style="font-variation-settings:normal;opacity:1;vector-effect:none;fill:none;fill-opacity:1;stroke:#ff00c1;stroke-width:0.7;stroke-linecap:round;stroke-linejoin:miter;stroke-miterlimit:4;stroke-dasharray:none;stroke-dashoffset:0;stroke-opacity:0.421691;-inkscape-stroke:none;stop-color:#000000;stop-opacity:1"
       d="m 80.951294,196.88883 c 0,0 36.795996,0.86775 55.195806,1.21262 18.50669,0.34688 37.01679,0.49678 55.52313,0.86158 33.79772,0.66623 67.58712,1.71085 101.38389,2.42388 32.61974,0.6882 65.24179,1.26905 97.86463,1.7897 8.60287,0.1373 17.20647,0.22475 25.80949,0.35184 11.99404,0.17718 23.98714,0.41747 35.98148,0.57256 10.45867,0.13523 31.37707,0.31214 31.37707,0.31214"
       id="path9206"
       sodipodi:nodetypes="caaaaaac" />
    <path
       style="font-variation-settings:normal;opacity:1;vector-effect:none;fill:none;fill-opacity:1;stroke:#ff00c1;stroke-width:0.7;stroke-linecap:round;stroke-linejoin:miter;stroke-miterlimit:4;stroke-dasharray:none;stroke-dashoffset:0;stroke-opacity:0.421691;-inkscape-stroke:none;stop-color:#000000;stop-opacity:1"
       d="m 80.951294,193.91972 c 0,0 36.795996,0.86775 55.195806,1.21262 18.50669,0.34688 37.01679,0.49678 55.52313,0.86158 33.79772,0.66623 67.58712,1.71085 101.38389,2.42388 32.61974,0.6882 65.24179,1.26905 97.86463,1.7897 8.60287,0.1373 17.20647,0.22475 25.80949,0.35184 11.99404,0.17718 23.98714,0.41765 35.98148,0.57256 10.49106,0.13549 31.47425,0.31214 31.47425,0.31214"
       id="path9208"
       sodipodi:nodetypes="caaaaaac" />
    <path
       style="font-variation-settings:normal;opacity:1;vector-effect:none;fill:none;fill-opacity:1;stroke:#ff00c1;stroke-width:0.7;stroke-linecap:round;stroke-linejoin:miter;stroke-miterlimit:4;stroke-dasharray:none;stroke-dashoffset:0;stroke-opacity:0.421691;-inkscape-stroke:none;stop-color:#000000;stop-opacity:1"
       d="m 80.943272,190.54713 c 0,0 32.241528,0.73442 48.361408,1.1383 6.8223,0.17093 13.64319,0.39881 20.46609,0.54383 13.9867,0.29728 27.97709,0.39445 41.96426,0.66884 33.90543,0.66513 67.80142,1.78055 101.70826,2.36944 15.65586,0.27191 31.31576,0.26319 46.97158,0.53738 16.80212,0.29426 33.5969,0.96197 50.40006,1.18882 5.66005,0.0764 11.3217,-0.0291 16.98159,0.058 7.21599,0.11104 14.42696,0.45174 21.64244,0.59227 18.12739,0.35306 54.38883,0.63032 54.38883,0.63032"
       id="path10225"
       sodipodi:nodetypes="caaaaaaaac" />
    <path
       style="font-variation-settings:normal;opacity:1;vector-effect:none;fill:none;fill-opacity:1;stroke:#ff00c1;stroke-width:0.7;stroke-linecap:round;stroke-linejoin:miter;stroke-miterlimit:4;stroke-dasharray:none;stroke-dashoffset:0;stroke-opacity:0.421691;-inkscape-stroke:none;stop-color:#000000;stop-opacity:1"
       d="m 80.597276,187.23001 c 0,0 16.642321,0.54313 24.965434,0.74182 11.14048,0.26594 22.28484,0.34607 33.42554,0.60269 10.24258,0.23593 20.48042,0.66466 30.72383,0.86147 7.43444,0.14284 14.87137,0.1128 22.30623,0.23179 33.88498,0.54229 67.75926,1.65322 101.64421,2.19727 5.27904,0.0848 10.55971,0.0568 15.8383,0.16623 7.50572,0.1556 15.00592,0.52188 22.5112,0.69721 12.72749,0.29733 25.45887,0.39521 38.18816,0.6016 6.9164,0.11214 13.83462,0.14646 20.74905,0.34597 5.377,0.15515 10.74614,0.54623 16.12413,0.66177 8.62412,0.18529 17.25279,-0.0522 25.87829,0.0503 8.35951,0.0994 16.71513,0.42422 25.07432,0.54732 8.67322,0.12772 26.02172,0.19843 26.02172,0.19843"
       id="path10482"
       sodipodi:nodetypes="caaaaaaaaaaaac" />
    <path
       style="font-variation-settings:normal;opacity:1;vector-effect:none;fill:none;fill-opacity:1;stroke:#ff00c1;stroke-width:0.7;stroke-linecap:round;stroke-linejoin:miter;stroke-miterlimit:4;stroke-dasharray:none;stroke-dashoffset:0;stroke-opacity:0.421691;-inkscape-stroke:none;stop-color:#000000;stop-opacity:1"
       d="m 83.158662,51.895467 c 0,0 74.471978,0.898075 111.705128,1.532154 27.66725,0.471172 55.3353,0.946646 82.99662,1.688502 10.92902,0.293108 21.911,0.991004 32.64965,1.511674 8.66045,0.419906 17.34175,-0.08009 26.01186,0.0142 19.47163,0.211766 38.93459,0.948212 58.40521,1.238627 30.7676,0.458916 92.30964,0.796157 92.30964,0.796157"
       id="path11645"
       sodipodi:nodetypes="cassaac" />
    <path
       style="font-variation-settings:normal;opacity:1;vector-effect:none;fill:none;fill-opacity:1;stroke:#ff00c1;stroke-width:0.7;stroke-linecap:round;stroke-linejoin:miter;stroke-miterlimit:4;stroke-dasharray:none;stroke-dashoffset:0;stroke-opacity:0.421691;-inkscape-stroke:none;stop-color:#000000;stop-opacity:1"
       d="m 81.713137,54.514763 c 0,0 50.013413,1.240854 75.024153,1.651595 13.56464,0.222766 27.13213,0.233772 40.69702,0.440831 19.35142,0.295387 38.70188,0.670375 58.04977,1.143421 13.84692,0.338549 27.68869,0.868025 41.53545,1.212948 14.53551,0.362079 29.07367,0.608668 43.61079,0.899173 18.12772,0.362259 36.25441,0.788179 54.38382,1.052288 30.77173,0.448282 92.32057,0.903576 92.32057,0.903576"
       id="path14560"
       sodipodi:nodetypes="caaaaaac" />
  </g>
  <g
     inkscape:groupmode="layer"
     id="layer3"
     inkscape:label="music-notation-1"
     style="display:inline"
     sodipodi:insensitive="true">
    <rect
       style="font-variation-settings:normal;opacity:1;vector-effect:none;fill:#00c0d9;fill-opacity:0.418825;stroke:none;stroke-width:0.7;stroke-linecap:round;stroke-linejoin:miter;stroke-miterlimit:4;stroke-dasharray:none;stroke-dashoffset:0;stroke-opacity:0.421691;-inkscape-stroke:none;stop-color:#000000;stop-opacity:1"
       id="rect16710"
       width="3.3490431"
       height="2.3216488"
       x="160.39865"
       y="110.83821" />
    <rect
       style="font-variation-settings:normal;opacity:1;vector-effect:none;fill:#00c0d9;fill-opacity:0.418825;stroke:none;stroke-width:0.7;stroke-linecap:round;stroke-linejoin:miter;stroke-miterlimit:4;stroke-dasharray:none;stroke-dashoffset:0;stroke-opacity:0.421691;-inkscape-stroke:none;stop-color:#000000;stop-opacity:1"
       id="rect19811"
       width="2.8376946"
       height="2.6141205"
       x="180.03226"
       y="107.64796" />
    <rect
       style="font-variation-settings:normal;opacity:1;vector-effect:none;fill:#00c0d9;fill-opacity:0.418825;stroke:none;stroke-width:0.7;stroke-linecap:round;stroke-linejoin:miter;stroke-miterlimit:4;stroke-dasharray:none;stroke-dashoffset:0;stroke-opacity:0.421691;-inkscape-stroke:none;stop-color:#000000;stop-opacity:1"
       id="rect19829"
       width="3.0684605"
       height="2.2744963"
       x="200.44943"
       y="105.08675" />
    <rect
       style="font-variation-settings:normal;opacity:1;vector-effect:none;fill:#00c0d9;fill-opacity:0.418825;stroke:none;stroke-width:0.7;stroke-linecap:round;stroke-linejoin:miter;stroke-miterlimit:4;stroke-dasharray:none;stroke-dashoffset:0;stroke-opacity:0.421691;-inkscape-stroke:none;stop-color:#000000;stop-opacity:1"
       id="rect19831"
       width="3.1981568"
       height="2.2687991"
       x="222.16969"
       y="109.13746" />
    <rect
       style="font-variation-settings:normal;opacity:1;vector-effect:none;fill:#00c0d9;fill-opacity:0.418825;stroke:none;stroke-width:0.7;stroke-linecap:round;stroke-linejoin:miter;stroke-miterlimit:4;stroke-dasharray:none;stroke-dashoffset:0;stroke-opacity:0.421691;-inkscape-stroke:none;stop-color:#000000;stop-opacity:1"
       id="rect19833"
       width="3.4261496"
       height="2.2860081"
       x="199.6433"
       y="111.85145" />
    <rect
       style="font-variation-settings:normal;opacity:1;vector-effect:none;fill:#00c0d9;fill-opacity:0.418825;stroke:none;stroke-width:0.7;stroke-linecap:round;stroke-linejoin:miter;stroke-miterlimit:4;stroke-dasharray:none;stroke-dashoffset:0;stroke-opacity:0.421691;-inkscape-stroke:none;stop-color:#000000;stop-opacity:1"
       id="rect19835"
       width="2.9455068"
       height="3.8810954"
       x="249.22855"
       y="103.84051" />
    <rect
       style="font-variation-settings:normal;opacity:1;vector-effect:none;fill:#00c0d9;fill-opacity:0.418825;stroke:none;stroke-width:0.7;stroke-linecap:round;stroke-linejoin:miter;stroke-miterlimit:4;stroke-dasharray:none;stroke-dashoffset:0;stroke-opacity:0.421691;-inkscape-stroke:none;stop-color:#000000;stop-opacity:1"
       id="rect19837"
       width="3.6176739"
       height="2.3980923"
       x="248.11967"
       y="112.43068" />
    <rect
       style="font-variation-settings:normal;opacity:1;vector-effect:none;fill:#00c0d9;fill-opacity:0.418825;stroke:none;stroke-width:0.7;stroke-linecap:round;stroke-linejoin:miter;stroke-miterlimit:4;stroke-dasharray:none;stroke-dashoffset:0;stroke-opacity:0.421691;-inkscape-stroke:none;stop-color:#000000;stop-opacity:1"
       id="rect19839"
       width="3.6176739"
       height="2.3980923"
       x="272.14688"
       y="109.74562" />
    <path
       style="fill:none;stroke:#13ff40;stroke-width:0.365;stroke-linecap:round;stroke-linejoin:miter;stroke-miterlimit:4;stroke-dasharray:none;stroke-opacity:0.510834"
       d="m 162.68188,101.86616 c -0.13612,2.7234 -0.15349,5.35122 -0.0652,7.89397"
       id="path19874"
       sodipodi:nodetypes="cc" />
    <path
       style="font-variation-settings:normal;opacity:1;vector-effect:none;fill:none;fill-opacity:1;stroke:#13ff40;stroke-width:0.365;stroke-linecap:round;stroke-linejoin:miter;stroke-miterlimit:4;stroke-dasharray:none;stroke-dashoffset:0;stroke-opacity:0.510834;-inkscape-stroke:none;stop-color:#000000;stop-opacity:1"
       d="m 181.62238,99.044785 c -0.18189,2.991425 -0.13778,5.526405 -0.3044,8.751505"
       id="path22111"
       sodipodi:nodetypes="cc" />
    <path
       style="font-variation-settings:normal;opacity:1;vector-effect:none;fill:none;fill-opacity:1;stroke:#13ff40;stroke-width:0.365;stroke-linecap:round;stroke-linejoin:miter;stroke-miterlimit:4;stroke-dasharray:none;stroke-dashoffset:0;stroke-opacity:0.510834;-inkscape-stroke:none;stop-color:#000000;stop-opacity:1"
       d="m 202.48233,96.647065 c -0.0732,2.938845 0.085,5.594585 0.18012,8.135455"
       id="path23013"
       sodipodi:nodetypes="cc" />
    <path
       style="font-variation-settings:normal;opacity:1;vector-effect:none;fill:none;fill-opacity:1;stroke:#13ff40;stroke-width:0.365;stroke-linecap:round;stroke-linejoin:miter;stroke-miterlimit:4;stroke-dasharray:none;stroke-dashoffset:0;stroke-opacity:0.510834;-inkscape-stroke:none;stop-color:#000000;stop-opacity:1"
       d="m 223.9743,100.09637 -0.25235,5.42333"
       id="path23365"
       sodipodi:nodetypes="cc" />
    <path
       style="font-variation-settings:normal;opacity:1;vector-effect:none;fill:none;fill-opacity:1;stroke:#13ff40;stroke-width:0.365;stroke-linecap:round;stroke-linejoin:miter;stroke-miterlimit:4;stroke-dasharray:none;stroke-dashoffset:0;stroke-opacity:0.510834;-inkscape-stroke:none;stop-color:#000000;stop-opacity:1"
       d="m 202.90119,112.29529 -0.46432,11.36642"
       id="path23713" />
    <path
       style="fill:none;stroke:#2736ff;stroke-width:1.065;stroke-linecap:round;stroke-linejoin:miter;stroke-miterlimit:4;stroke-dasharray:none;stroke-opacity:0.41897"
       d="m 162.03453,104.7075 c 6.49941,-1.79259 13.12783,-2.37759 19.49824,-3.92778"
       id="path23928"
       sodipodi:nodetypes="cc" />
    <path
       style="font-variation-settings:normal;opacity:1;vector-effect:none;fill:none;fill-opacity:1;stroke:#2736ff;stroke-width:1.065;stroke-linecap:round;stroke-linejoin:miter;stroke-miterlimit:4;stroke-dasharray:none;stroke-dashoffset:0;stroke-opacity:0.41897;-inkscape-stroke:none;stop-color:#000000;stop-opacity:1"
       d="m 178.60679,103.60759 3.00827,-0.90002"
       id="path27142"
       sodipodi:nodetypes="cc" />
    <path
       style="font-variation-settings:normal;opacity:1;vector-effect:none;fill:none;fill-opacity:1;stroke:#2736ff;stroke-width:1.065;stroke-linecap:round;stroke-linejoin:miter;stroke-miterlimit:4;stroke-dasharray:none;stroke-dashoffset:0;stroke-opacity:0.41897;-inkscape-stroke:none;stop-color:#000000;stop-opacity:1"
       d="m 202.45355,99.160718 c 2.96594,1.491422 6.19695,1.913002 9.41261,2.396522 4.0564,1.38646 7.94691,2.99165 11.70905,4.10959"
       id="path27475"
       sodipodi:nodetypes="ccc" />
  </g>
  <g
     inkscape:groupmode="layer"
     id="layer4"
     inkscape:label="points">
    <path
       id="path29248"
       style="fill:none;stroke:#ff00e5;stroke-width:0.2;stroke-linecap:butt;stroke-linejoin:miter;stroke-opacity:0.365095;stroke-miterlimit:4;stroke-dasharray:none"
       d="m -14.103076,6.0208213 h 1.39835 m 0,0 h 1.39835 m -1.39835,1.3983504 V 6.0208213 m 0,0 v -1.39835 m 1.41979,1.39836 a 1.4197944,1.4197944 0 0 1 -1.41979,1.4197904 1.4197944,1.4197944 0 0 1 -1.4198,-1.4197904 1.4197944,1.4197944 0 0 1 1.4198,-1.4198 1.4197944,1.4197944 0 0 1 1.41979,1.4198 z" />
    <use
       x="0"
       y="0"
       xlink:href="#path29248"
       id="use33427"
       transform="translate(174.86835,106.06022)"
       width="100%"
       height="100%" />
    <use
       x="0"
       y="0"
       xlink:href="#path29248"
       id="use33740"
       transform="translate(194.14122,102.99753)"
       width="100%"
       height="100%" />
    <use
       x="0"
       y="0"
       xlink:href="#path29248"
       id="use34221"
       transform="translate(178.2959,106.77238)"
       width="100%"
       height="100%" />
    <use
       x="0"
       y="0"
       xlink:href="#path29248"
       id="use34223"
       transform="translate(175.8532,92.285066)"
       width="100%"
       height="100%" />
    <use
       x="0"
       y="0"
       xlink:href="#path29248"
       id="use34225"
       transform="translate(192.87579,89.919491)"
       width="100%"
       height="100%" />
    <use
       x="0"
       y="0"
       xlink:href="#path29248"
       id="use34227"
       transform="translate(214.6174,100.16467)"
       width="100%"
       height="100%" />
    <use
       x="0"
       y="0"
       xlink:href="#path29248"
       id="use34229"
       transform="translate(213.79479,107.08862)"
       width="100%"
       height="100%" />
    <use
       x="0"
       y="0"
       xlink:href="#path29248"
       id="use34231"
       transform="translate(236.42627,104.26726)"
       width="100%"
       height="100%" />
    <use
       x="0"
       y="0"
       xlink:href="#path29248"
       id="use34233"
       transform="translate(262.67187,107.70179)"
       width="100%"
       height="100%" />
    <use
       x="0"
       y="0"
       xlink:href="#path29248"
       id="use34235"
       transform="translate(263.17889,99.673402)"
       width="100%"
       height="100%" />
    <use
       x="0"
       y="0"
       xlink:href="#path29248"
       id="use34237"
       transform="translate(234.03197,91.33361)"
       width="100%"
       height="100%" />
    <use
       x="0"
       y="0"
       xlink:href="#path29248"
       id="use34239"
       transform="translate(217.66851,89.22065)"
       width="100%"
       height="100%" />
    <use
       x="0"
       y="0"
       xlink:href="#path29248"
       id="use34241"
       transform="translate(265.9666,89.262106)"
       width="100%"
       height="100%" />
    <use
       x="0"
       y="0"
       xlink:href="#path29248"
       id="use34243"
       transform="translate(285.52227,93.714744)"
       width="100%"
       height="100%" />
    <use
       x="0"
       y="0"
       xlink:href="#path29248"
       id="use34245"
       transform="translate(286.63889,104.94705)"
       width="100%"
       height="100%" />
    <use
       x="0"
       y="0"
       xlink:href="#path29248"
       id="use34247"
       transform="translate(318.54317,101.44999)"
       width="100%"
       height="100%" />
    <use
       x="0"
       y="0"
       xlink:href="#path29248"
       id="use34249"
       transform="translate(318.74277,107.04522)"
       width="100%"
       height="100%" />
    <use
       x="0"
       y="0"
       xlink:href="#path29248"
       id="use34251"
       transform="translate(339.73529,104.50826)"
       width="100%"
       height="100%" />
    <use
       x="0"
       y="0"
       xlink:href="#path29248"
       id="use34253"
       transform="translate(359.46132,99.552551)"
       width="100%"
       height="100%" />
    <use
       x="0"
       y="0"
       xlink:href="#path29248"
       id="use34255"
       transform="translate(359.4342,102.80644)"
       width="100%"
       height="100%" />
    <use
       x="0"
       y="0"
       xlink:href="#path29248"
       id="use34257"
       transform="translate(360.77127,87.199231)"
       width="100%"
       height="100%" />
    <use
       x="0"
       y="0"
       xlink:href="#path29248"
       id="use34259"
       transform="translate(384.70023,94.531821)"
       width="100%"
       height="100%" />
    <use
       x="0"
       y="0"
       xlink:href="#path29248"
       id="use34261"
       transform="translate(382.95428,105.27722)"
       width="100%"
       height="100%" />
    <use
       x="0"
       y="0"
       xlink:href="#path29248"
       id="use34263"
       transform="translate(118.22442,105.06222)"
       width="100%"
       height="100%" />
    <use
       x="0"
       y="0"
       xlink:href="#path29248"
       id="use34265"
       transform="translate(110.32244,101.78366)"
       width="100%"
       height="100%" />
    <use
       x="0"
       y="0"
       xlink:href="#path29248"
       id="use34267"
       transform="translate(105.6597,100.59785)"
       width="100%"
       height="100%" />
    <use
       x="0"
       y="0"
       xlink:href="#path29248"
       id="use34269"
       transform="translate(256.86538,107.10919)"
       width="100%"
       height="100%" />
    <use
       x="0"
       y="0"
       xlink:href="#path29248"
       id="use34271"
       transform="translate(358.29885,111.01096)"
       width="100%"
       height="100%" />
    <use
       x="0"
       y="0"
       xlink:href="#path29248"
       id="use34273"
       transform="translate(412.35419,111.25388)"
       width="100%"
       height="100%" />
    <use
       x="0"
       y="0"
       xlink:href="#path29248"
       id="use34275"
       transform="translate(413.78315,104.14644)"
       width="100%"
       height="100%" />
    <use
       x="0"
       y="0"
       xlink:href="#path29248"
       id="use34277"
       transform="translate(438.61606,104.58299)"
       width="100%"
       height="100%" />
    <use
       x="0"
       y="0"
       xlink:href="#path29248"
       id="use34279"
       transform="translate(478.85287,106.54752)"
       width="100%"
       height="100%" />
    <use
       x="0"
       y="0"
       xlink:href="#path29248"
       id="use34281"
       transform="translate(480.66625,116.24632)"
       width="100%"
       height="100%" />
    <use
       x="0"
       y="0"
       xlink:href="#path29248"
       id="use34348"
       transform="translate(410.41693,141.89481)"
       width="100%"
       height="100%" />
    <use
       x="0"
       y="0"
       xlink:href="#path29248"
       id="use34350"
       transform="translate(409.8852,145.15625)"
       width="100%"
       height="100%" />
    <use
       x="0"
       y="0"
       xlink:href="#path29248"
       id="use34352"
       transform="translate(453.48229,134.93378)"
       width="100%"
       height="100%" />
    <use
       x="0"
       y="0"
       xlink:href="#path29248"
       id="use34354"
       transform="translate(478.98186,138.14828)"
       width="100%"
       height="100%" />
    <use
       x="0"
       y="0"
       xlink:href="#path29248"
       id="use34356"
       transform="translate(478.23809,126.37316)"
       width="100%"
       height="100%" />
    <use
       x="0"
       y="0"
       xlink:href="#path29248"
       id="use34358"
       transform="translate(456.40536,123.77857)"
       width="100%"
       height="100%" />
    <use
       x="0"
       y="0"
       xlink:href="#path29248"
       id="use34360"
       transform="translate(356.45485,142.58453)"
       width="100%"
       height="100%" />
    <use
       x="0"
       y="0"
       xlink:href="#path29248"
       id="use34362"
       transform="translate(356.5595,146.27516)"
       width="100%"
       height="100%" />
    <use
       x="0"
       y="0"
       xlink:href="#path29248"
       id="use34364"
       transform="translate(316.23181,138.84046)"
       width="100%"
       height="100%" />
    <use
       x="0"
       y="0"
       xlink:href="#path29248"
       id="use34366"
       transform="translate(316.46849,141.48078)"
       width="100%"
       height="100%" />
    <use
       x="0"
       y="0"
       xlink:href="#path29248"
       id="use34368"
       transform="translate(216.76199,137.45632)"
       width="100%"
       height="100%" />
    <use
       x="0"
       y="0"
       xlink:href="#path29248"
       id="use34370"
       transform="translate(217.69196,141.5298)"
       width="100%"
       height="100%" />
    <use
       x="0"
       y="0"
       xlink:href="#path29248"
       id="use34372"
       transform="translate(121.71606,136.14901)"
       width="100%"
       height="100%" />
    <use
       x="0"
       y="0"
       xlink:href="#path29248"
       id="use34374"
       transform="translate(123.27549,140.04992)"
       width="100%"
       height="100%" />
    <use
       x="0"
       y="0"
       xlink:href="#path29248"
       id="use34376"
       transform="translate(120.48935,156.20668)"
       width="100%"
       height="100%" />
    <use
       x="0"
       y="0"
       xlink:href="#path29248"
       id="use34378"
       transform="translate(120.08125,167.12049)"
       width="100%"
       height="100%" />
    <use
       x="0"
       y="0"
       xlink:href="#path29248"
       id="use34380"
       transform="translate(134.03593,162.573)"
       width="100%"
       height="100%" />
    <use
       x="0"
       y="0"
       xlink:href="#path29248"
       id="use34382"
       transform="translate(155.19899,167.27019)"
       width="100%"
       height="100%" />
    <use
       x="0"
       y="0"
       xlink:href="#path29248"
       id="use34384"
       transform="translate(155.87945,157.21161)"
       width="100%"
       height="100%" />
    <use
       x="0"
       y="0"
       xlink:href="#path29248"
       id="use34386"
       transform="translate(183.85397,162.69046)"
       width="100%"
       height="100%" />
    <use
       x="0"
       y="0"
       xlink:href="#path29248"
       id="use34388"
       transform="translate(256.34868,162.95264)"
       width="100%"
       height="100%" />
    <use
       x="0"
       y="0"
       xlink:href="#path29248"
       id="use34390"
       transform="translate(315.13542,160.51053)"
       width="100%"
       height="100%" />
    <use
       x="0"
       y="0"
       xlink:href="#path29248"
       id="use34392"
       transform="translate(314.87686,170.51478)"
       width="100%"
       height="100%" />
    <use
       x="0"
       y="0"
       xlink:href="#path29248"
       id="use34394"
       transform="translate(335.25348,166.53212)"
       width="100%"
       height="100%" />
    <use
       x="0"
       y="0"
       xlink:href="#path29248"
       id="use34396"
       transform="translate(355.4667,161.60356)"
       width="100%"
       height="100%" />
    <use
       x="0"
       y="0"
       xlink:href="#path29248"
       id="use34398"
       transform="translate(355.37726,171.2442)"
       width="100%"
       height="100%" />
    <use
       x="0"
       y="0"
       xlink:href="#path29248"
       id="use34400"
       transform="translate(381.94434,166.7988)"
       width="100%"
       height="100%" />
    <use
       x="0"
       y="0"
       xlink:href="#path29248"
       id="use34402"
       transform="translate(452.40122,166.14973)"
       width="100%"
       height="100%" />
  </g>
</svg>
